<svg width="25" height="21" viewBox="0 0 25 21" fill="none" xmlns="http://www.w3.org/2000/svg">
<path d="M23.0769 0H1.92308C1.41305 0 0.923903 0.201136 0.563256 0.55916C0.202609 0.917184 0 1.40277 0 1.90909V19.0909C0 19.5972 0.202609 20.0828 0.563256 20.4408C0.923903 20.7989 1.41305 21 1.92308 21H23.0769C23.587 21 24.0761 20.7989 24.4367 20.4408C24.7974 20.0828 25 19.5972 25 19.0909V1.90909C25 1.40277 24.7974 0.917184 24.4367 0.55916C24.0761 0.201136 23.587 0 23.0769 0ZM23.0769 1.90909V3.81818H1.92308V1.90909H23.0769ZM23.0769 19.0909H1.92308V5.72727H23.0769V19.0909ZM18.2692 8.59091C18.2692 10.1099 17.6614 11.5666 16.5795 12.6407C15.4975 13.7148 14.0301 14.3182 12.5 14.3182C10.9699 14.3182 9.50248 13.7148 8.42054 12.6407C7.3386 11.5666 6.73077 10.1099 6.73077 8.59091C6.73077 8.33775 6.83207 8.09496 7.0124 7.91594C7.19272 7.73693 7.43729 7.63636 7.69231 7.63636C7.94732 7.63636 8.19189 7.73693 8.37222 7.91594C8.55254 8.09496 8.65385 8.33775 8.65385 8.59091C8.65385 9.60355 9.05906 10.5747 9.78036 11.2908C10.5017 12.0068 11.4799 12.4091 12.5 12.4091C13.5201 12.4091 14.4983 12.0068 15.2196 11.2908C15.9409 10.5747 16.3462 9.60355 16.3462 8.59091C16.3462 8.33775 16.4475 8.09496 16.6278 7.91594C16.8081 7.73693 17.0527 7.63636 17.3077 7.63636C17.5627 7.63636 17.8073 7.73693 17.9876 7.91594C18.1679 8.09496 18.2692 8.33775 18.2692 8.59091Z" fill="white"/>
</svg>
